<svg version="1.1" id="Layer_1" xmlns="http://www.w3.org/2000/svg" xmlns:xlink="http://www.w3.org/1999/xlink" x="0px" y="0px"
	 width="100%" viewBox="0 0 618 591" enable-background="new 0 0 618 591" xml:space="preserve">
<path fill="#000000" opacity="1.000000" stroke="none" 
	d="
M417.000000,592.000000 
	C278.000000,592.000000 139.500000,592.000000 1.000000,592.000000 
	C1.000000,395.000000 1.000000,198.000000 1.000000,1.000000 
	C207.000000,1.000000 413.000000,1.000000 619.000000,1.000000 
	C619.000000,198.000000 619.000000,395.000000 619.000000,592.000000 
	C551.833313,592.000000 484.666656,592.000000 417.000000,592.000000 
M389.558472,368.012604 
	C412.344910,367.991608 435.147583,367.434540 457.912506,368.124268 
	C475.210510,368.648346 494.480103,351.334137 493.895630,333.830963 
	C494.244354,331.980652 494.893768,330.130920 494.897156,328.279968 
	C494.958740,294.804779 494.942566,261.329468 494.942841,227.854156 
	C494.943146,188.383270 494.968323,148.912338 494.864197,109.441727 
	C494.859406,107.620087 493.695190,105.801506 493.002075,103.086853 
	C492.608398,99.634880 492.957336,95.880920 491.696838,92.781479 
	C485.066498,76.477859 471.796844,68.695976 455.070526,68.353638 
	C434.684326,67.936401 414.272156,68.528625 393.829956,69.536781 
	C359.613464,71.224243 325.245605,70.451561 290.955750,69.869843 
	C256.902740,69.292145 222.811295,72.096352 188.770782,68.320236 
	C181.183197,67.478554 173.265213,70.097672 165.548904,69.807106 
	C156.657578,69.472290 149.860672,73.394318 143.978348,78.837166 
	C136.353714,85.892143 132.576019,95.550583 132.248886,105.638542 
	C131.531708,127.755493 131.884232,149.907135 130.893814,171.975510 
	C108.669434,171.963943 86.444962,171.926025 64.220825,171.993774 
	C62.547310,171.998886 60.876091,172.757141 58.613091,173.729248 
	C56.328758,174.060471 53.975014,174.144485 51.771420,174.763245 
	C38.041744,178.618439 27.050201,194.186157 27.043760,208.608109 
	C26.998005,311.054169 27.017429,413.500214 27.017767,515.946289 
	C27.017792,523.442322 27.029837,530.938293 27.038198,538.434326 
	C27.046371,545.762573 31.730789,550.459167 37.364174,553.304810 
	C42.823414,556.062500 49.628033,556.728333 54.835667,552.542664 
	C62.252373,546.581482 69.160500,539.942139 75.940926,533.243347 
	C94.600670,514.808411 113.135628,496.245789 131.571976,477.587494 
	C134.280182,474.846619 137.047867,473.951569 140.786240,473.956635 
	C209.083496,474.048798 277.380890,474.008423 345.678284,474.043365 
	C354.270691,474.047760 362.555023,472.772339 370.172974,468.638214 
	C380.436188,463.068634 385.713043,453.722504 387.713684,442.782654 
	C388.955963,435.989838 388.567474,428.860840 388.552246,421.883514 
	C388.514465,404.578278 388.270844,387.273499 388.557251,369.705505 
	C388.568115,369.212097 388.578979,368.718719 389.558472,368.012604 
z"/>
<path fill="#00AB47" opacity="1.000000" stroke="none" 
	d="
M388.109894,369.968536 
	C388.270844,387.273499 388.514465,404.578278 388.552246,421.883514 
	C388.567474,428.860840 388.955963,435.989838 387.713684,442.782654 
	C385.713043,453.722504 380.436188,463.068634 370.172974,468.638214 
	C362.555023,472.772339 354.270691,474.047760 345.678284,474.043365 
	C277.380890,474.008423 209.083496,474.048798 140.786240,473.956635 
	C137.047867,473.951569 134.280182,474.846619 131.571976,477.587494 
	C113.135628,496.245789 94.600670,514.808411 75.940926,533.243347 
	C69.160500,539.942139 62.252373,546.581482 54.835667,552.542664 
	C49.628033,556.728333 42.823414,556.062500 37.364174,553.304810 
	C31.730789,550.459167 27.046371,545.762573 27.038198,538.434326 
	C27.029837,530.938293 27.017792,523.442322 27.017767,515.946289 
	C27.017429,413.500214 26.998005,311.054169 27.043760,208.608109 
	C27.050201,194.186157 38.041744,178.618439 51.771420,174.763245 
	C53.975014,174.144485 56.328758,174.060471 59.296135,173.542511 
	C62.632050,173.541565 65.284515,173.881500 67.937843,173.888306 
	C86.436531,173.935806 104.935394,173.906311 123.434189,173.918213 
	C132.766998,173.924210 132.923233,174.079514 132.924622,183.456238 
	C132.931824,231.953094 132.889679,280.450043 132.999100,328.946655 
	C133.008743,333.219971 133.318237,337.710327 134.633224,341.724884 
	C139.972137,358.024139 152.844193,367.122253 170.075363,367.131470 
	C239.070862,367.168365 308.066406,367.145721 377.061951,367.165955 
	C380.391388,367.166931 383.720734,367.365753 387.027710,367.487152 
	C387.005310,367.501862 387.023590,367.451477 387.091431,367.792175 
	C387.476166,368.744751 387.793030,369.356628 388.109894,369.968536 
z"/>
<path fill="#5AB874" opacity="1.000000" stroke="none" 
	d="
M387.023590,367.451477 
	C387.023590,367.451477 387.005310,367.501862 387.062073,366.986481 
	C387.127319,314.322906 387.168243,262.174652 387.076752,210.026657 
	C387.070129,206.252365 386.650635,202.299530 385.483887,198.737320 
	C380.229218,182.693695 366.592621,173.053787 349.517487,173.047073 
	C279.708832,173.019653 209.900162,173.043182 140.091553,172.987976 
	C137.327423,172.985779 134.563797,172.372925 131.799927,172.044601 
	C131.884232,149.907135 131.531708,127.755493 132.248886,105.638542 
	C132.576019,95.550583 136.353714,85.892143 143.978348,78.837166 
	C149.860672,73.394318 156.657578,69.472290 165.548904,69.807106 
	C173.265213,70.097672 181.183197,67.478554 188.770782,68.320236 
	C222.811295,72.096352 256.902740,69.292145 290.955750,69.869843 
	C325.245605,70.451561 359.613464,71.224243 393.829956,69.536781 
	C414.272156,68.528625 434.684326,67.936401 455.070526,68.353638 
	C471.796844,68.695976 485.066498,76.477859 491.696838,92.781479 
	C492.957336,95.880920 492.608398,99.634880 492.853943,103.906921 
	C492.514526,106.706055 492.156708,108.685081 492.156158,110.664207 
	C492.136139,182.829498 492.140686,254.994797 492.197174,327.160065 
	C492.198975,329.447357 492.781921,331.734222 493.093994,334.021271 
	C494.480103,351.334137 475.210510,368.648346 457.912506,368.124268 
	C435.147583,367.434540 412.344910,367.991608 388.861389,367.905304 
	C387.784088,367.682495 387.403839,367.566986 387.023590,367.451477 
z"/>
<path fill="#00832D" opacity="1.000000" stroke="none" 
	d="
M131.346863,172.010056 
	C134.563797,172.372925 137.327423,172.985779 140.091553,172.987976 
	C209.900162,173.043182 279.708832,173.019653 349.517487,173.047073 
	C366.592621,173.053787 380.229218,182.693695 385.483887,198.737320 
	C386.650635,202.299530 387.070129,206.252365 387.076752,210.026657 
	C387.168243,262.174652 387.127319,314.322906 387.084503,366.971771 
	C383.720734,367.365753 380.391388,367.166931 377.061951,367.165955 
	C308.066406,367.145721 239.070862,367.168365 170.075363,367.131470 
	C152.844193,367.122253 139.972137,358.024139 134.633224,341.724884 
	C133.318237,337.710327 133.008743,333.219971 132.999100,328.946655 
	C132.889679,280.450043 132.931824,231.953094 132.924622,183.456238 
	C132.923233,174.079514 132.766998,173.924210 123.434189,173.918213 
	C104.935394,173.906311 86.436531,173.935806 67.937843,173.888306 
	C65.284515,173.881500 62.632050,173.541565 59.591492,173.260559 
	C60.876091,172.757141 62.547310,171.998886 64.220825,171.993774 
	C86.444962,171.926025 108.669434,171.963943 131.346863,172.010056 
z"/>
<path fill="#426D4B" opacity="1.000000" stroke="none" 
	d="
M493.494812,333.926117 
	C492.781921,331.734222 492.198975,329.447357 492.197174,327.160065 
	C492.140686,254.994797 492.136139,182.829498 492.156158,110.664207 
	C492.156708,108.685081 492.514526,106.706055 492.888397,104.354248 
	C493.695190,105.801506 494.859406,107.620087 494.864197,109.441727 
	C494.968323,148.912338 494.943146,188.383270 494.942841,227.854156 
	C494.942566,261.329468 494.958740,294.804779 494.897156,328.279968 
	C494.893768,330.130920 494.244354,331.980652 493.494812,333.926117 
z"/>
<path fill="#00832D" opacity="1.000000" stroke="none" 
	d="
M387.091431,367.792175 
	C387.403839,367.566986 387.784088,367.682495 388.377075,368.011658 
	C388.578979,368.718719 388.568115,369.212097 388.333557,369.837036 
	C387.793030,369.356628 387.476166,368.744751 387.091431,367.792175 
z"/>
</svg>